<svg version="1.1" viewBox="0.0 0.0 147.4750656167979 147.98162729658793" fill="none" stroke="none" stroke-linecap="square" stroke-miterlimit="10" xmlns:xlink="http://www.w3.org/1999/xlink" xmlns="http://www.w3.org/2000/svg"><clipPath id="p.0"><path d="m0 0l147.47507 0l0 147.98163l-147.47507 0l0 -147.98163z" clip-rule="nonzero"/></clipPath><g clip-path="url(#p.0)"><path fill="#000000" fill-opacity="0.0" d="m0 0l147.47507 0l0 147.98163l-147.47507 0z" fill-rule="evenodd"/><path fill="#f4f4f4" d="m-0.3807097 -0.29662836l149.38582 0l0 149.38583l-149.38582 0z" fill-rule="evenodd"/><path fill="#d8475a" d="m18.666067 39.52085l0 10.71307l24.448439 0l0 35.560986c0 8.453194 -3.565731 12.679794 -10.697189 12.679794c-5.3086224 0 -9.860394 -2.6223068 -13.65531 -7.866913l-7.2753696 8.7463455c2.355833 3.1446228 5.383238 5.5857086 9.08222 7.3232574c3.7096386 1.7268829 7.755064 2.5903244 12.136274 2.5903244c7.6004944 0 13.362164 -2.0093613 17.285 -6.028099c3.9334946 -4.029396 5.9002457 -10.073479 5.9002457 -18.132263l0 -45.586502z" fill-rule="evenodd"/><path fill="#d8475a" d="m99.71411 52.296585l12.967743 30.060547l-25.839554 0l12.871811 -30.060547zm-6.1880646 -12.775734l-30.956299 68.77149l13.175613 0l6.779686 -15.9096985l34.37812 0l6.8756256 15.9096985l13.367493 0l-31.052238 -68.77149z" fill-rule="evenodd"/></g></svg>